<svg width="0" height="0">
  <symbol xmlns="http://www.w3.org/2000/svg" viewBox="0 0 24 24" id="pointer">
    <path d="M18.536 7.555c-1.188-.252-4.606-.904-5.536-1.088v-3.512c0-1.629-1.346-2.955-3-2.955s-3 1.326-3 2.955v7.457c-.554-.336-1.188-.621-1.838-.715-1.822-.262-3.162.94-3.162 2.498 0 .805.363 1.613 1.022 2.271 3.972 3.972 5.688 5.125 6.059 9.534h9.919v-1.748c0-5.154 3-6.031 3-10.029 0-2.448-1.061-4.157-3.464-4.668zm.357 8.022c-.821 1.483-1.838 3.319-1.891 6.423h-6.13c-.726-3.82-3.81-6.318-6.436-8.949-.688-.686-.393-1.37.442-1.373 1.263-.006 3.06 1.884 4.122 3.205v-11.928c0-.517.458-.955 1-.955s1 .438 1 .955v6.948c0 .315.256.571.572.571.314 0 .57-.256.57-.571v-.575c0-.534.49-.938 1.014-.833.398.079.686.428.686.833v1.273c0 .315.256.571.571.571s.571-.256.571-.571v-.83c0-.531.487-.932 1.008-.828.396.078.682.424.682.828v1.533c0 .315.256.571.571.571s.571-.256.571-.571v-.912c0-.523.545-.867 1.018-.646.645.305 1.166.932 1.166 2.477 0 1.355-.465 2.193-1.107 3.354z"></path>
  </symbol>
  <symbol xmlns="http://www.w3.org/2000/svg" fill-rule="evenodd" clip-rule="evenodd" viewBox="0 0 24 24" id="smiley">
    <path d="M12 0c6.623 0 12 5.377 12 12s-5.377 12-12 12-12-5.377-12-12 5.377-12 12-12zm0 1c6.071 0 11 4.929 11 11s-4.929 11-11 11-11-4.929-11-11 4.929-11 11-11zm-.045 17.51h-.015c-2.285 0-4.469-1.189-6.153-3.349l.789-.614c1.489 1.911 3.394 2.963 5.364 2.963h.013c1.987-.004 3.907-1.078 5.408-3.021l.791.611c-1.693 2.194-3.894 3.405-6.197 3.41zm-3.468-10.01c.552 0 1 .448 1 1s-.448 1-1 1-1-.448-1-1 .448-1 1-1zm7.013 0c.552 0 1 .448 1 1s-.448 1-1 1-1-.448-1-1 .448-1 1-1z"></path>
  </symbol>
  <symbol xmlns="http://www.w3.org/2000/svg" viewBox="0 0 24 24" id="github">
    <path d="M12 0c-6.626 0-12 5.373-12 12 0 5.302 3.438 9.8 8.207 11.387.599.111.793-.261.793-.577v-2.234c-3.338.726-4.033-1.416-4.033-1.416-.546-1.387-1.333-1.756-1.333-1.756-1.089-.745.083-.729.083-.729 1.205.084 1.839 1.237 1.839 1.237 1.07 1.834 2.807 1.304 3.492.997.107-.775.418-1.305.762-1.604-2.665-.305-5.467-1.334-5.467-5.931 0-1.311.469-2.381 1.236-3.221-.124-.303-.535-1.524.117-3.176 0 0 1.008-.322 3.301 1.23.957-.266 1.983-.399 3.003-.404 1.02.005 2.047.138 3.006.404 2.291-1.552 3.297-1.23 3.297-1.23.653 1.653.242 2.874.118 3.176.77.84 1.235 1.911 1.235 3.221 0 4.609-2.807 5.624-5.479 5.921.43.372.823 1.102.823 2.222v3.293c0 .319.192.694.801.576 4.765-1.589 8.199-6.086 8.199-11.386 0-6.627-5.373-12-12-12z"></path>
  </symbol>
  <symbol xmlns="http://www.w3.org/2000/svg" viewBox="0 0 24 24" id="linkedin">
    <path d="M12 2c5.514 0 10 4.486 10 10s-4.486 10-10 10-10-4.486-10-10 4.486-10 10-10zm0-2c-6.627 0-12 5.373-12 12s5.373 12 12 12 12-5.373 12-12-5.373-12-12-12zm-2 8c0 .557-.447 1.008-1 1.008s-1-.45-1-1.008c0-.557.447-1.008 1-1.008s1 .452 1 1.008zm0 2h-2v6h2v-6zm3 0h-2v6h2v-2.861c0-1.722 2.002-1.881 2.002 0v2.861h1.998v-3.359c0-3.284-3.128-3.164-4-1.548v-1.093z"></path>
  </symbol>
</svg>

