<svg width="0" height="0">
  <symbol xmlns="http://www.w3.org/2000/svg" viewBox="0 0 24 24" id="pointer">
    <path d="M18.536 7.555c-1.188-.252-4.606-.904-5.536-1.088v-3.512c0-1.629-1.346-2.955-3-2.955s-3 1.326-3 2.955v7.457c-.554-.336-1.188-.621-1.838-.715-1.822-.262-3.162.94-3.162 2.498 0 .805.363 1.613 1.022 2.271 3.972 3.972 5.688 5.125 6.059 9.534h9.919v-1.748c0-5.154 3-6.031 3-10.029 0-2.448-1.061-4.157-3.464-4.668zm.357 8.022c-.821 1.483-1.838 3.319-1.891 6.423h-6.13c-.726-3.82-3.81-6.318-6.436-8.949-.688-.686-.393-1.37.442-1.373 1.263-.006 3.06 1.884 4.122 3.205v-11.928c0-.517.458-.955 1-.955s1 .438 1 .955v6.948c0 .315.256.571.572.571.314 0 .57-.256.57-.571v-.575c0-.534.49-.938 1.014-.833.398.079.686.428.686.833v1.273c0 .315.256.571.571.571s.571-.256.571-.571v-.83c0-.531.487-.932 1.008-.828.396.078.682.424.682.828v1.533c0 .315.256.571.571.571s.571-.256.571-.571v-.912c0-.523.545-.867 1.018-.646.645.305 1.166.932 1.166 2.477 0 1.355-.465 2.193-1.107 3.354z"></path>
  </symbol>
  <symbol xmlns="http://www.w3.org/2000/svg" fill-rule="evenodd" clip-rule="evenodd" viewBox="0 0 24 24" id="smiley">
    <path d="M12 0c6.623 0 12 5.377 12 12s-5.377 12-12 12-12-5.377-12-12 5.377-12 12-12zm0 1c6.071 0 11 4.929 11 11s-4.929 11-11 11-11-4.929-11-11 4.929-11 11-11zm-.045 17.51h-.015c-2.285 0-4.469-1.189-6.153-3.349l.789-.614c1.489 1.911 3.394 2.963 5.364 2.963h.013c1.987-.004 3.907-1.078 5.408-3.021l.791.611c-1.693 2.194-3.894 3.405-6.197 3.41zm-3.468-10.01c.552 0 1 .448 1 1s-.448 1-1 1-1-.448-1-1 .448-1 1-1zm7.013 0c.552 0 1 .448 1 1s-.448 1-1 1-1-.448-1-1 .448-1 1-1z"></path>
  </symbol>
  <symbol xmlns="http://www.w3.org/2000/svg" viewBox="0 0 24 24" id="github">
    <path d="M12 0c-6.626 0-12 5.373-12 12 0 5.302 3.438 9.8 8.207 11.387.599.111.793-.261.793-.577v-2.234c-3.338.726-4.033-1.416-4.033-1.416-.546-1.387-1.333-1.756-1.333-1.756-1.089-.745.083-.729.083-.729 1.205.084 1.839 1.237 1.839 1.237 1.07 1.834 2.807 1.304 3.492.997.107-.775.418-1.305.762-1.604-2.665-.305-5.467-1.334-5.467-5.931 0-1.311.469-2.381 1.236-3.221-.124-.303-.535-1.524.117-3.176 0 0 1.008-.322 3.301 1.23.957-.266 1.983-.399 3.003-.404 1.02.005 2.047.138 3.006.404 2.291-1.552 3.297-1.23 3.297-1.23.653 1.653.242 2.874.118 3.176.77.84 1.235 1.911 1.235 3.221 0 4.609-2.807 5.624-5.479 5.921.43.372.823 1.102.823 2.222v3.293c0 .319.192.694.801.576 4.765-1.589 8.199-6.086 8.199-11.386 0-6.627-5.373-12-12-12z"></path>
  </symbol>
  <symbol xmlns="http://www.w3.org/2000/svg" viewBox="0 0 24 24" id="linkedin">
    <path d="M12 2c5.514 0 10 4.486 10 10s-4.486 10-10 10-10-4.486-10-10 4.486-10 10-10zm0-2c-6.627 0-12 5.373-12 12s5.373 12 12 12 12-5.373 12-12-5.373-12-12-12zm-2 8c0 .557-.447 1.008-1 1.008s-1-.45-1-1.008c0-.557.447-1.008 1-1.008s1 .452 1 1.008zm0 2h-2v6h2v-6zm3 0h-2v6h2v-2.861c0-1.722 2.002-1.881 2.002 0v2.861h1.998v-3.359c0-3.284-3.128-3.164-4-1.548v-1.093z"></path>
  </symbol>
  <symbol xmlns="http://www.w3.org/2000/svg" viewBox="0 0 24 24" id="smiley-2">
    <path d="M17.508 13.941l.492.493c-1.127 1.72-3.199 3.566-5.999 3.566-2.801 0-4.874-1.846-6.001-3.566l.492-.493c1.513 1.195 3.174 1.931 5.509 1.931 2.333 0 3.994-.736 5.507-1.931zm6.492-1.941c0 6.627-5.373 12-12 12s-12-5.373-12-12 5.373-12 12-12 12 5.373 12 12zm-21.159-4h2.51c.564-1.178 1.758-2 3.149-2 1.281 0 2.396.698 3.004 1.729.1.168.28.271.475.271.219 0 .423-.115.536-.302.611-1.014 1.716-1.698 2.985-1.698 1.391 0 2.585.822 3.149 2h2.51c-1.547-3.527-5.068-6-9.159-6s-7.612 2.473-9.159 6zm12.659 0c-.828 0-1.5.671-1.5 1.5s.672 1.5 1.5 1.5 1.5-.671 1.5-1.5-.672-1.5-1.5-1.5zm-7 0c-.828 0-1.5.671-1.5 1.5s.672 1.5 1.5 1.5 1.5-.671 1.5-1.5-.672-1.5-1.5-1.5zm13.5 4c0-.685-.07-1.354-.202-2h-2.849c-.245 1.691-1.691 3-3.449 3-1.552 0-2.454-.878-2.955-1.677-.11-.176-.304-.283-.512-.283-.208.001-.4.109-.51.287-.619 1.008-1.75 1.673-3.023 1.673-1.758 0-3.204-1.309-3.449-3h-2.849c-.132.646-.202 1.315-.202 2 0 5.514 4.486 10 10 10s10-4.486 10-10z"></path>
  </symbol>
  <svg width="0" height="0" class="hidden">
  <symbol xmlns="http://www.w3.org/2000/svg" viewBox="0 0 24 24" id="thumb">
    <path d="M19.406 9.558c-1.21-.051-2.87-.278-3.977-.744.809-3.283 1.253-8.814-2.196-8.814-1.861 0-2.35 1.668-2.833 3.329-.373 1.283-.794 2.341-1.254 3.22-.038-.643-.475-1.611-.928-2.08l-.796.625c.39.328.835 1.352.816 1.906-.561.138-1.404-.067-1.91-.344l-.256.967c.557.266 1.557.491 2.164.377-1.842 2.44-4.1 2.794-6.236 3.072v9.928c3.503 0 5.584.729 8.169 1.842 1.257.541 3.053 1.158 5.336 1.158 2.538 0 4.295-.997 5.009-3.686.5-1.877 1.486-7.25 1.486-8.25 0-1.648-1.168-2.446-2.594-2.506zm-6.07-.597l-2.601-1.05c.198-.37.389-.772.575-1.201l2.359.778c-.1.5-.213.989-.333 1.473zm.505-2.518l-2.138-.705c.148-.396.292-.816.432-1.259l1.833.548c-.021.487-.062.961-.127 1.416zm.144-2.527l-1.529-.457c.773-2.332 1.429-1.537 1.529.457zm3.911 10.501s.201.01 1.069-.027c1.082-.046 1.051 1.469.004 1.563l-1.761.099c-.734.094-.656 1.203.141 1.172 0 0 .686-.017 1.143-.041 1.068-.056 1.016 1.429.04 1.551-.424.053-1.745.115-1.745.115-.811.072-.706 1.235.109 1.141l.771-.031c.822-.074 1.003.825-.292 1.661-1.567.881-4.685.131-6.416-.614-2.239-.965-4.438-1.934-6.959-2.006v-6c2.257-.518 4.419-1.401 6.197-4.164 1.365.705 5.609 2.524 9.002 2.714 1.055.059 1.024 1.455-.051 1.584l-1.394.167s-.608 1.111.142 1.116z"></path>
  </symbol>
</svg>
  <symbol xmlns="http://www.w3.org/2000/svg" viewBox="0 0 24 24" id="no-thumb">
    <path d="M19.406 9.558c-1.21-.051-2.87-.278-3.977-.744.2-.812.42-2.114.477-2.595.118-1.007-1.099-1.978-2.847-2.184-2.807-.337-3.321 1.205-3.321 1.205-2.006 4.976-4.974 5.473-7.738 5.832v9.928c3.503 0 5.584.729 8.169 1.842 1.257.541 3.053 1.158 5.336 1.158 2.538 0 4.295-.997 5.009-3.686.5-1.877 1.486-7.25 1.486-8.25 0-1.648-1.168-2.446-2.594-2.506zm-5.195-4.182c.778.411.789.905-.071 1.104-.895.208-2.093.035-2.715-.292-.71-.373-.697-.886.011-1.08.798-.217 2.033-.124 2.775.268zm3.685 9.041s.201.01 1.069-.027c1.082-.046 1.051 1.469.004 1.563l-1.761.099c-.734.094-.656 1.203.141 1.172 0 0 .686-.017 1.143-.041 1.068-.056 1.016 1.429.04 1.551-.424.053-1.745.115-1.745.115-.811.072-.706 1.235.109 1.141l.771-.031c.822-.074 1.003.825-.292 1.661-1.567.881-4.685.131-6.416-.614-2.239-.965-4.438-1.934-6.959-2.006v-6c2.477-.568 4.835-1.59 6.701-5.042.772.404 1.81.589 2.741.547-.117.5-.241.995-.363 1.489 1.061.543 3.371 1.402 6.12 1.556 1.055.059 1.024 1.455-.051 1.584l-1.394.167s-.608 1.111.142 1.116zm-3.878-11.861c-.047.271-.305.455-.578.409-.271-.045-.456-.305-.409-.577l.335-1.972c.049-.286.263-.416.481-.416.282 0 .568.217.506.583l-.335 1.973zm3.297-.496c.201-.188.209-.505.021-.705-.192-.202-.509-.21-.708-.021l-1.456 1.372c-.201.188-.209.506-.021.706.189.201.504.211.706.021l1.458-1.373zm-6.048-1.645c-.102-.257-.392-.382-.647-.281-.259.103-.383.394-.282.649l.739 1.858c.102.257.392.384.648.281.258-.103.383-.394.282-.649l-.74-1.858z"></path>
  </symbol>
</svg>

